<?xml version="1.0" encoding="UTF-8" standalone="no"?>
<!DOCTYPE svg PUBLIC "-//W3C//DTD SVG 1.1//EN" "http://www.w3.org/Graphics/SVG/1.1/DTD/svg11.dtd">
<!-- Generated by graphviz version 2.40.1 (20161225.0304)
 -->
<!-- Title: TD Pages: 1 -->
<svg xmlns="http://www.w3.org/2000/svg" xmlns:xlink="http://www.w3.org/1999/xlink" width="616pt" height="613pt" viewBox="0.00 0.00 616.25 612.90">
  <g id="graph0" class="graph" transform="scale(1 1) rotate(0) translate(4 608.9)">
    <title>TD</title>
    <g id="a_graph0">
      <a xlink:title="Click the boxes for further information">
        <polygon fill="#ffffff" stroke="transparent" points="-4,4 -4,-608.9 612.2461,-608.9 612.2461,4 -4,4"/>
      </a>
    </g>
    <!-- 3&#45;&gt;4 -->
    <!-- 3&#45;&gt;5 -->
    <!-- 4&#45;&gt;5 -->
    <g id="edge3" class="edge">
      <title>4-&gt;5</title>
      <path fill="none" stroke="#000000" d="M302.821,-495C305.3998,-495 307.9862,-495 310.577,-495"/>
      <polygon fill="#000000" stroke="#000000" points="310.5841,-498.5001 320.584,-495 310.584,-491.5001 310.5841,-498.5001"/>
    </g>
    <!-- 4&#45;&gt;6 -->
    <g id="edge4" class="edge">
      <title>4-&gt;6</title>
      <path fill="none" stroke="#000000" d="M176.5,-465.707C176.5,-443.6149 176.5,-413.3812 176.5,-390.9056"/>
      <polygon fill="#000000" stroke="#000000" points="180.0001,-390.874 176.5,-380.874 173.0001,-390.8741 180.0001,-390.874"/>
    </g>
    <!-- 5&#45;&gt;7 -->
    <!-- 6&#45;&gt;7 -->
    <g id="edge5" class="edge">
      <title>6-&gt;7</title>
      <path fill="none" stroke="#000000" d="M302.821,-360C311.202,-360 319.6641,-360 328.0915,-360"/>
      <polygon fill="#000000" stroke="#000000" points="328.346,-363.5001 338.346,-360 328.3459,-356.5001 328.346,-363.5001"/>
    </g>
    <!-- 6&#45;&gt;8 -->
    <g id="edge6" class="edge">
      <title>6-&gt;8</title>
      <path fill="none" stroke="#000000" d="M176.5,-339.1746C176.5,-332.9604 176.5,-326.0078 176.5,-319.2791"/>
      <polygon fill="#000000" stroke="#000000" points="180.0001,-319.028 176.5,-309.028 173.0001,-319.0281 180.0001,-319.028"/>
    </g>
    <!-- 7&#45;&gt;9 -->
    <!-- 8&#45;&gt;9 -->
    <g id="edge7" class="edge">
      <title>8-&gt;9</title>
      <path fill="none" stroke="#000000" d="M302.821,-288C311.202,-288 319.6641,-288 328.0915,-288"/>
      <polygon fill="#000000" stroke="#000000" points="328.346,-291.5001 338.346,-288 328.3459,-284.5001 328.346,-291.5001"/>
    </g>
    <!-- 8&#45;&gt;10 -->
    <g id="edge8" class="edge">
      <title>8-&gt;10</title>
      <path fill="none" stroke="#000000" d="M176.5,-267.126C176.5,-255.7668 176.5,-241.4958 176.5,-228.8745"/>
      <polygon fill="#000000" stroke="#000000" points="180.0001,-228.7608 176.5,-218.7608 173.0001,-228.7609 180.0001,-228.7608"/>
    </g>
    <!-- 9&#45;&gt;11 -->
    <!-- 10&#45;&gt;12 -->
    <g id="edge10" class="edge">
      <title>10-&gt;12</title>
      <path fill="none" stroke="#000000" d="M176.5,-177.3683C176.5,-157.7516 176.5,-127.5198 176.5,-101.8937"/>
      <polygon fill="#000000" stroke="#000000" points="180.0001,-101.6036 176.5,-91.6036 173.0001,-101.6037 180.0001,-101.6036"/>
    </g>
    <!-- 10&#45;&gt;C -->
    <g id="edge9" class="edge">
      <title>10-&gt;C</title>
      <path fill="none" stroke="#000000" d="M302.821,-198C311.202,-198 319.6641,-198 328.0915,-198"/>
      <polygon fill="#000000" stroke="#000000" points="328.346,-201.5001 338.346,-198 328.3459,-194.5001 328.346,-201.5001"/>
    </g>
    <!-- identification -->
    <g id="node1" class="node">
      <title>identification</title>
      <g id="a_node1">
        <a xlink:title="Blue identification box">
          <path fill="#bcd2ee" stroke="#bcd2ee" d="M19.3333,-540C19.3333,-540 9.6667,-540 9.6667,-540 4.8333,-540 0,-535.1667 0,-530.3333 0,-530.3333 0,-459.6667 0,-459.6667 0,-454.8333 4.8333,-450 9.6667,-450 9.6667,-450 19.3333,-450 19.3333,-450 24.1667,-450 29,-454.8333 29,-459.6667 29,-459.6667 29,-530.3333 29,-530.3333 29,-535.1667 24.1667,-540 19.3333,-540"/>
          <text text-anchor="middle" x="490.8" y="16.5" font-family="Helvetica,sans-Serif" font-size="14.00" fill="#000000" transform="rotate(-90)">Identification</text>
        </a>
      </g>
    </g>
    <!-- screening -->
    <g id="node2" class="node">
      <title>screening</title>
      <g id="a_node2">
        <a xlink:title="Blue screening box">
          <path fill="#bcd2ee" stroke="#bcd2ee" d="M19.3333,-408C19.3333,-408 9.6667,-408 9.6667,-408 4.8333,-408 0,-403.1667 0,-398.3333 0,-398.3333 0,-165.6667 0,-165.6667 0,-160.8333 4.8333,-156 9.6667,-156 9.6667,-156 19.3333,-156 19.3333,-156 24.1667,-156 29,-160.8333 29,-165.6667 29,-165.6667 29,-398.3333 29,-398.3333 29,-403.1667 24.1667,-408 19.3333,-408"/>
          <text text-anchor="middle" x="277.8" y="16.5" font-family="Helvetica,sans-Serif" font-size="14.00" fill="#000000" transform="rotate(-90)">Screening</text>
        </a>
      </g>
    </g>
    <!-- included -->
    <g id="node3" class="node">
      <title>included</title>
      <g id="a_node3">
        <a xlink:title="Blue included box">
          <path fill="#bcd2ee" stroke="#bcd2ee" d="M19.3333,-108C19.3333,-108 9.6667,-108 9.6667,-108 4.8333,-108 0,-103.1667 0,-98.3333 0,-98.3333 0,-9.6667 0,-9.6667 0,-4.8333 4.8333,0 9.6667,0 9.6667,0 19.3333,0 19.3333,0 24.1667,0 29,-4.8333 29,-9.6667 29,-9.6667 29,-98.3333 29,-98.3333 29,-103.1667 24.1667,-108 19.3333,-108"/>
          <text text-anchor="middle" x="49.8" y="16.5" font-family="Helvetica,sans-Serif" font-size="14.00" fill="#000000" transform="rotate(-90)">Included</text>
        </a>
      </g>
    </g>
    <!-- 3 -->
    <g id="node4" class="node">
      <title>3</title>
      <g id="a_node4">
        <a xlink:title="Yellow title box; Identification of new studies via databases and registers">
          <path fill="#ffc125" stroke="#ffc125" d="M580.8333,-604.9C580.8333,-604.9 60.1667,-604.9 60.1667,-604.9 55.3333,-604.9 50.5,-600.0667 50.5,-595.2333 50.5,-595.2333 50.5,-585.5667 50.5,-585.5667 50.5,-580.7333 55.3333,-575.9 60.1667,-575.9 60.1667,-575.9 580.8333,-575.9 580.8333,-575.9 585.6667,-575.9 590.5,-580.7333 590.5,-585.5667 590.5,-585.5667 590.5,-595.2333 590.5,-595.2333 590.5,-600.0667 585.6667,-604.9 580.8333,-604.9"/>
          <text text-anchor="middle" x="320.5" y="-586.2" font-family="Helvetica,sans-Serif" font-size="14.00" fill="#000000">Identification of new studies via databases and registers</text>
        </a>
      </g>
    </g>
    <!-- 4 -->
    <g id="node5" class="node">
      <title>4</title>
      <g id="a_node5">
        <a xlink:title="Records identified from: Databases and Registers">
          <polygon fill="none" stroke="#000000" points="302.5,-524.4014 50.5,-524.4014 50.5,-465.5986 302.5,-465.5986 302.5,-524.4014"/>
          <text text-anchor="middle" x="176.5" y="-507.6" font-family="Helvetica,sans-Serif" font-size="14.00" fill="#000000">Records identified from:</text>
          <text text-anchor="middle" x="176.5" y="-490.8" font-family="Helvetica,sans-Serif" font-size="14.00" fill="#000000">PubMed/MEDLINE (n=122) (n = 122)</text>
          <text text-anchor="middle" x="176.5" y="-474" font-family="Helvetica,sans-Serif" font-size="14.00" fill="#000000">Registers (n = 0)</text>
        </a>
      </g>
    </g>
    <!-- 5 -->
    <g id="node6" class="node">
      <title>5</title>
      <g id="a_node6">
        <a xlink:title="Duplicate records">
          <polygon fill="none" stroke="#000000" points="608.4926,-541 320.5074,-541 320.5074,-449 608.4926,-449 608.4926,-541"/>
          <text text-anchor="middle" x="464.5" y="-524.4" font-family="Helvetica,sans-Serif" font-size="14.00" fill="#000000">Records removed before screening:</text>
          <text text-anchor="middle" x="464.5" y="-507.6" font-family="Helvetica,sans-Serif" font-size="14.00" fill="#000000">Duplicate records (n = 0)</text>
          <text text-anchor="middle" x="464.5" y="-490.8" font-family="Helvetica,sans-Serif" font-size="14.00" fill="#000000">Records marked as ineligible by automation</text>
          <text text-anchor="middle" x="464.5" y="-474" font-family="Helvetica,sans-Serif" font-size="14.00" fill="#000000">tools (n = 0)</text>
          <text text-anchor="middle" x="464.5" y="-457.2" font-family="Helvetica,sans-Serif" font-size="14.00" fill="#000000">Records removed for other reasons (n = 0)</text>
        </a>
      </g>
    </g>
    <!-- 6 -->
    <g id="node7" class="node">
      <title>6</title>
      <g id="a_node7">
        <a xlink:title="Records screened (databases and registers)">
          <polygon fill="none" stroke="#000000" points="302.5,-380.6019 50.5,-380.6019 50.5,-339.3981 302.5,-339.3981 302.5,-380.6019"/>
          <text text-anchor="middle" x="176.5" y="-364.2" font-family="Helvetica,sans-Serif" font-size="14.00" fill="#000000">Records screened</text>
          <text text-anchor="middle" x="176.5" y="-347.4" font-family="Helvetica,sans-Serif" font-size="14.00" fill="#000000">(n = 122)</text>
        </a>
      </g>
    </g>
    <!-- 7 -->
    <g id="node8" class="node">
      <title>7</title>
      <g id="a_node8">
        <a xlink:title="Records excluded (databases and registers)">
          <polygon fill="none" stroke="#000000" points="590.5,-380.6019 338.5,-380.6019 338.5,-339.3981 590.5,-339.3981 590.5,-380.6019"/>
          <text text-anchor="middle" x="464.5" y="-364.2" font-family="Helvetica,sans-Serif" font-size="14.00" fill="#000000">Records excluded</text>
          <text text-anchor="middle" x="464.5" y="-347.4" font-family="Helvetica,sans-Serif" font-size="14.00" fill="#000000">(n = 117)</text>
        </a>
      </g>
    </g>
    <!-- 8 -->
    <g id="node9" class="node">
      <title>8</title>
      <g id="a_node9">
        <a xlink:title="Reports sought for retrieval (databases and registers)">
          <polygon fill="none" stroke="#000000" points="302.5,-308.6019 50.5,-308.6019 50.5,-267.3981 302.5,-267.3981 302.5,-308.6019"/>
          <text text-anchor="middle" x="176.5" y="-292.2" font-family="Helvetica,sans-Serif" font-size="14.00" fill="#000000">Reports sought for retrieval</text>
          <text text-anchor="middle" x="176.5" y="-275.4" font-family="Helvetica,sans-Serif" font-size="14.00" fill="#000000">(n = 5)</text>
        </a>
      </g>
    </g>
    <!-- 9 -->
    <g id="node10" class="node">
      <title>9</title>
      <g id="a_node10">
        <a xlink:title="Reports not retrieved (databases and registers)">
          <polygon fill="none" stroke="#000000" points="590.5,-308.6019 338.5,-308.6019 338.5,-267.3981 590.5,-267.3981 590.5,-308.6019"/>
          <text text-anchor="middle" x="464.5" y="-292.2" font-family="Helvetica,sans-Serif" font-size="14.00" fill="#000000">Reports not retrieved</text>
          <text text-anchor="middle" x="464.5" y="-275.4" font-family="Helvetica,sans-Serif" font-size="14.00" fill="#000000">(n = 0)</text>
        </a>
      </g>
    </g>
    <!-- 10 -->
    <g id="node11" class="node">
      <title>10</title>
      <g id="a_node11">
        <a xlink:title="Reports assessed for eligibility (databases and registers)">
          <polygon fill="none" stroke="#000000" points="302.5,-218.6019 50.5,-218.6019 50.5,-177.3981 302.5,-177.3981 302.5,-218.6019"/>
          <text text-anchor="middle" x="176.5" y="-202.2" font-family="Helvetica,sans-Serif" font-size="14.00" fill="#000000">Reports assessed for eligibility</text>
          <text text-anchor="middle" x="176.5" y="-185.4" font-family="Helvetica,sans-Serif" font-size="14.00" fill="#000000">(n = 5)</text>
        </a>
      </g>
    </g>
    <!-- 11 -->
    <g id="node12" class="node">
      <title>11</title>
      <g id="a_node12">
        <a xlink:title="Reports excluded (databases and registers)">
          <polygon fill="#ffffff" stroke="#000000" points="590.5,-235.7003 338.5,-235.7003 338.5,-160.2997 590.5,-160.2997 590.5,-235.7003"/>
          <text text-anchor="middle" x="464.5" y="-219" font-family="Helvetica,sans-Serif" font-size="14.00" fill="#000000">Reports excluded:</text>
          <text text-anchor="middle" x="464.5" y="-202.2" font-family="Helvetica,sans-Serif" font-size="14.00" fill="#000000">Reason1 (n = NA)</text>
          <text text-anchor="middle" x="464.5" y="-185.4" font-family="Helvetica,sans-Serif" font-size="14.00" fill="#000000">Reason2 (n = NA)</text>
          <text text-anchor="middle" x="464.5" y="-168.6" font-family="Helvetica,sans-Serif" font-size="14.00" fill="#000000">Reason3 (n = NA)</text>
        </a>
      </g>
    </g>
    <!-- 12 -->
    <g id="node13" class="node">
      <title>12</title>
      <g id="a_node13">
        <a xlink:title="New studies included in review">
          <polygon fill="none" stroke="#000000" points="302.5,-91.7003 50.5,-91.7003 50.5,-16.2997 302.5,-16.2997 302.5,-91.7003"/>
          <text text-anchor="middle" x="176.5" y="-75" font-family="Helvetica,sans-Serif" font-size="14.00" fill="#000000">5 RCTs included</text>
          <text text-anchor="middle" x="176.5" y="-58.2" font-family="Helvetica,sans-Serif" font-size="14.00" fill="#000000">(n = 5)</text>
          <text text-anchor="middle" x="176.5" y="-41.4" font-family="Helvetica,sans-Serif" font-size="14.00" fill="#000000">N=2,402 participants</text>
          <text text-anchor="middle" x="176.5" y="-24.6" font-family="Helvetica,sans-Serif" font-size="14.00" fill="#000000">(n = 5)</text>
        </a>
      </g>
    </g>
    <!-- C -->
  </g>
</svg>
